<svg width="35" height="20" fill="none" xmlns="http://www.w3.org/2000/svg"><g clip-path="url(#clip0)" fill="#429F3A"><path d="M30.3 14.165c-1.242 0-2.252 1.118-2.252 2.493 0 1.375 1.01 2.494 2.252 2.494 1.241 0 2.252-1.119 2.252-2.494 0-1.375-1.01-2.493-2.252-2.493zm0 3.49c-.497 0-.9-.447-.9-.997s.403-.997.9-.997.9.447.9.997-.403.998-.9.998zm3.617-13.129a.653.653 0 00-.532-.287H20.17l-.608-2.817c-.073-.337-.344-.574-.657-.574h-2.23c-.373 0-.675.335-.675.748s.302.748.676.748h1.696l2.195 10.174c.073.337.345.574.657.574h10.517c.31 0 .581-.234.656-.568l1.644-7.357a.813.813 0 00-.124-.64zm-2.705 7.07h-9.454l-1.265-5.86h12.029l-1.31 5.86zm-9.087 2.569c-1.241 0-2.252 1.118-2.252 2.493 0 1.375 1.01 2.494 2.252 2.494 1.242 0 2.252-1.119 2.252-2.494 0-1.375-1.01-2.493-2.252-2.493zm0 3.49c-.497 0-.9-.447-.9-.997s.403-.997.9-.997.901.447.901.997-.404.998-.9.998z"/></g><path d="M6.401 3v6m0 0h5.402M6.4 9H1m5.401 0v6" stroke="#429F3A" stroke-width="1.8" stroke-linecap="round" stroke-linejoin="round"/><defs><clipPath id="clip0"><path fill="#fff" d="M16 0h18.061v20H16z"/></clipPath></defs></svg>