<svg xmlns="http://www.w3.org/2000/svg" width="19" height="19"><path fill="#429f3a" d="M19 2.353v13.639c0 .645-.239 1.198-.717 1.66a2.388 2.388 0 01-1.72.693H2.437a2.389 2.389 0 01-1.72-.693C.24 17.19 0 16.637 0 15.992V2.352c0-.644.24-1.197.717-1.66A2.388 2.388 0 012.437 0h14.127c.667 0 1.24.23 1.719.693.478.462.717 1.015.717 1.66zM5.703 9.137c0 .987.373 1.829 1.12 2.525.746.697 1.642 1.046 2.69 1.046 1.055 0 1.956-.349 2.702-1.046.747-.696 1.12-1.538 1.12-2.525 0-.988-.373-1.83-1.12-2.527-.746-.696-1.647-1.045-2.702-1.045-1.048 0-1.945.349-2.69 1.045-.747.697-1.12 1.54-1.12 2.527zm11.145 6.365V7.763h-1.67c.165.502.248 1.023.248 1.565a5.154 5.154 0 01-.792 2.776 5.688 5.688 0 01-2.152 2.013 6.112 6.112 0 01-2.97.74c-1.624 0-3.014-.539-4.168-1.618-1.155-1.079-1.732-2.382-1.732-3.911 0-.542.083-1.063.247-1.565H2.115v7.74c0 .206.072.38.217.519.144.14.324.209.538.209h13.223a.75.75 0 00.532-.21.684.684 0 00.223-.518zm0-12.636a.787.787 0 00-.248-.579.828.828 0 00-.606-.245h-2.152a.83.83 0 00-.606.245.788.788 0 00-.247.58v1.97c0 .23.082.426.247.585a.84.84 0 00.606.239h2.152c.24 0 .442-.08.606-.239a.781.781 0 00.248-.585z"/></svg>