<svg xmlns="http://www.w3.org/2000/svg" width="19" height="11"><path fill="#429f3a" d="M18.9 9.46a1.248 1.248 0 00-.065-.12c-.33-.574-.96-1.278-1.89-2.113l-.02-.019-.01-.01-.009-.009h-.01c-.422-.389-.69-.65-.801-.784-.205-.255-.25-.513-.139-.774.08-.198.376-.615.89-1.252.27-.338.485-.609.643-.813 1.141-1.465 1.636-2.402 1.484-2.81l-.059-.095c-.04-.057-.142-.11-.306-.158-.165-.047-.376-.055-.633-.024l-2.85.02a.382.382 0 00-.197.004l-.129.029-.05.024-.039.029a.434.434 0 00-.109.1.65.65 0 00-.099.167c-.31.771-.662 1.488-1.058 2.15-.244.396-.468.738-.673 1.028-.204.29-.376.504-.514.64a3.552 3.552 0 01-.376.33c-.112.083-.198.118-.257.106a7.453 7.453 0 01-.169-.039.645.645 0 01-.222-.234 1.023 1.023 0 01-.114-.373 3.958 3.958 0 01-.034-.387 7.784 7.784 0 01.005-.459c.006-.197.01-.331.01-.401 0-.242.004-.505.014-.789l.025-.673c.007-.166.01-.341.01-.526s-.012-.33-.035-.435a1.45 1.45 0 00-.103-.306.52.52 0 00-.203-.23 1.166 1.166 0 00-.332-.128C10.126.049 9.682.008 9.141 0 7.914-.01 7.126.065 6.776.231a1.33 1.33 0 00-.375.287c-.12.14-.136.216-.05.229.396.057.676.194.84.41l.06.116c.046.082.093.229.139.44.046.21.076.442.089.697.033.465.033.863 0 1.195-.033.331-.064.59-.094.774-.03.185-.074.334-.134.45a1.88 1.88 0 01-.119.21.168.168 0 01-.049.047.764.764 0 01-.267.048c-.092 0-.205-.045-.336-.134a2.344 2.344 0 01-.41-.368 4.926 4.926 0 01-.48-.655 11.08 11.08 0 01-.555-.994l-.158-.277a23.547 23.547 0 01-.405-.779c-.172-.34-.324-.67-.456-.99A.633.633 0 003.78.633l-.05-.03a.685.685 0 00-.158-.081A1.078 1.078 0 003.344.46L.634.479C.355.479.167.539.068.66L.03.718A.3.3 0 000 .87c0 .07.02.156.06.258.395.898.825 1.765 1.29 2.6.465.835.87 1.507 1.212 2.016.343.51.693.991 1.049 1.444.356.452.592.742.707.87.115.127.206.222.272.286l.247.23c.159.152.391.336.698.55.307.213.646.423 1.019.63a5.64 5.64 0 001.3.507c.495.13.977.183 1.445.157h1.138c.23-.019.405-.089.524-.21l.04-.048a.624.624 0 00.074-.176.942.942 0 00.034-.263 3.04 3.04 0 01.064-.74c.05-.22.106-.386.169-.498a1.227 1.227 0 01.38-.42.653.653 0 01.08-.034c.158-.05.344-.001.559.148.214.15.415.335.603.555.188.22.414.466.678.74.264.274.494.478.692.612l.198.115c.132.076.304.147.515.21.21.064.395.08.553.048l2.533-.038c.25 0 .445-.04.583-.12.139-.08.221-.167.248-.263a.715.715 0 00.005-.325 1.165 1.165 0 00-.07-.253z"/></svg>