<svg xmlns="http://www.w3.org/2000/svg" width="41" height="47"><path fill="#429f3a" d="M29.815 1.438s.54.753 1.063 1.656c.261.449.508.926.718 1.406.211.48.407.922.407 1.5 0 1.645-1.356 3-3 3-1.645 0-3-1.355-3-3 0-.578.195-1.02.406-1.5.21-.48.457-.957.719-1.406.523-.903 1.062-1.656 1.062-1.656L29.003.25zm8.5 2.5s.664.914 1.313 2.03c.324.56.648 1.16.906 1.75.258.59.469 1.134.469 1.782 0 1.922-1.579 3.5-3.5 3.5a3.514 3.514 0 01-3.5-3.5c0-.648.21-1.191.468-1.781.258-.59.582-1.192.907-1.75.648-1.117 1.312-2.032 1.312-2.032l.813-1.187zm-9.437.156c-.239.41-.492.847-.657 1.218-.164.372-.218.715-.218.688 0 .566.433 1 1 1 .566 0 1-.434 1-1 0 .027-.055-.316-.22-.688-.163-.37-.417-.808-.655-1.218-.067-.117-.059-.11-.125-.219-.067.11-.059.102-.125.219zm8.25 2.875c-.301.52-.602 1.082-.813 1.562-.21.48-.312.926-.312.969 0 .84.66 1.5 1.5 1.5s1.5-.66 1.5-1.5c0-.043-.102-.488-.313-.969a16.787 16.787 0 00-.812-1.562c-.188-.324-.204-.324-.375-.594-.172.27-.188.27-.375.594zM14.72 7.5l.5.875c1.32 2.262 1.149 5.078-.406 7.188a.48.48 0 01-.031.062l-.906 1.094c.105.168.222.328.312.5L30.72 13.25l.032-.031a3.28 3.28 0 012.687.562 3.478 3.478 0 011.313 2.032c.23 1.011.015 2.222-.782 3.093.004.227-.007.457 0 .688l.282-.156a3.473 3.473 0 012.437-.25 3.37 3.37 0 012.156 1.75c.477.94.48 1.968.157 2.78-.149.368-.504.528-.75.813a3.61 3.61 0 011.343 1.438c.457.902.559 1.953.125 2.844-.433.89-1.25 1.539-2.343 2.093h-.032L37.19 31c.367.29.727.582.969 1.063.644 1.277.398 2.624-.219 3.437-.605.797-1.422 1.191-1.969 1.469-.007.004-.023.027-.03.031-.04.02-13.513 7.012-16.97 8.625-4.984 2.324-11 1.063-11 1.063a1.006 1.006 0 01.407-1.97s5.605 1.028 9.75-.906c3.261-1.519 16.906-8.593 16.906-8.593.457-.23 1.039-.578 1.312-.938.274-.36.399-.59.032-1.312-.368-.723-.61-.758-1.063-.75-.453.008-1.074.27-1.531.5l-6.813 3.406a1 1 0 01-.906-1.781l6.813-3.406 3.593-1.813c.88-.445 1.293-.887 1.438-1.188.144-.3.176-.53-.094-1.062-.308-.606-.586-.75-.875-.813-.289-.062-.68.012-1.031.188-.98.492-2.39 1.188-4.75 2.375-1.535.773-3.067 1.563-4.188 2.125-.558.281-1.004.5-1.312.656-.152.078-.27.153-.344.188l-.062.031h-.032c-.007.004.008-.02-.03 0-.009.004-.907-1.781-.907-1.781h.062l.032-.032c.011-.007.011-.023.03-.03.067-.036.177-.087.313-.157h.032l.062-.031c.309-.157.715-.387 1.25-.657 1.121-.562 2.652-1.32 4.188-2.093 2.355-1.188 3.77-1.883 4.75-2.375l1.437-.719c.281-.14.555-.453.688-.781.132-.328.168-.672-.063-1.125-.23-.453-.531-.63-.875-.719a1.563 1.563 0 00-1.031.094l-2.875 1.437-9.938 5.031a1 1 0 01-.906-1.78l9.969-5.032c.48-.242.633-.508.719-.844.086-.336.054-.742-.094-1.031a1.667 1.667 0 00-.781-.719c-.32-.133-.621-.16-1.063.063l-18.156 9.5a1 1 0 01-1.375-1.25l1.906-4.657c.64-1.562.277-3.3-.781-4.593-.453.824-1.043 1.894-2.156 3.937-1.473 2.703-3.078 5.738-3.344 6.344-.215.492-.762 2.707-1.156 4.625-.395 1.918-.72 3.656-.72 3.656a1 1 0 11-1.969-.344c.001 0 .321-1.738.72-3.687.398-1.95.805-3.98 1.281-5.063.426-.968 1.961-3.757 3.438-6.468 1.476-2.711 2.843-5.25 2.843-5.25a.996.996 0 011.594-.188l.25.25.656-.781c.008-.012.024-.02.032-.031.98-1.356 1.046-3.098.343-4.594-.636.684-1.48 1.566-3.062 3.281-2.09 2.266-4.375 4.82-4.781 5.344-.332.426-1.434 2.453-2.282 4.219a142.324 142.324 0 00-1.562 3.375.997.997 0 01-1.742.172.999.999 0 01-.07-1.016s.73-1.613 1.593-3.406c.863-1.793 1.742-3.66 2.469-4.594.652-.836 2.812-3.168 4.906-5.438 2.094-2.269 4.063-4.375 4.063-4.375A.989.989 0 0113.69 7a.998.998 0 011.031.5zm16.47 7.688l-16.376 3.937a6.555 6.555 0 01-.406 3.563l-.875 2.093 15.719-8.219h.03c.938-.472 1.95-.46 2.75-.125.286.122.544.286.782.47a1.55 1.55 0 000-.657 1.59 1.59 0 00-.562-.875 1.035 1.035 0 00-.72-.219c-.1.004-.222.004-.343.031z"/></svg>