<svg xmlns="http://www.w3.org/2000/svg" width="12" height="13"><path fill="#787878" d="M8.882 7.79a.455.455 0 00.197-.292.475.475 0 00-.343-.556.431.431 0 00-.338.062A4.507 4.507 0 016 7.697c-.846 0-1.675-.24-2.397-.693a.436.436 0 00-.619.144.47.47 0 00.134.642A5.257 5.257 0 006 8.636a5.257 5.257 0 002.882-.846zM2.628 9.8a.722.722 0 01-.711-.732V2.732a.75.75 0 01.208-.518A.71.71 0 012.628 2h6.744a.694.694 0 01.503.214.734.734 0 01.208.518V11l1.167.6V1.934c0-.36-.752-1.134-1.686-1.134H2.436c-.447 0-.876.183-1.192.508A1.76 1.76 0 00.75 2.534v6.732c0 .46.178.9.494 1.226.316.325.745.508 1.192.508h4.147l3.821 1.368a.569.569 0 00.57-.026.613.613 0 00.276-.514V11.6l-1.167-.6-2.916-1.2z"/></svg>