<svg xmlns="http://www.w3.org/2000/svg" width="42" height="42"><path fill="#429f3a" d="M24.128.69v3.125h-1.563v1.66a15.413 15.413 0 018.3 3.418l1.173-1.172-1.075-1.074 2.198-2.197 4.394 4.394-2.197 2.198-1.074-1.075-1.172 1.172a15.412 15.412 0 013.418 8.301h1.66v-1.563h3.125v6.25H38.19v-1.562h-1.66c-.311 3.15-1.557 5.975-3.467 8.3-.006.013.006.037 0 .05l1.22 1.123 1.075-1.075 2.197 2.198-4.394 4.394-2.198-2.197 1.075-1.074-1.123-1.221h-.05c-2.325 1.91-5.15 3.156-8.3 3.467v1.66h1.562v3.125h-6.25V38.19h1.563v-1.66c-3.15-.311-5.975-1.557-8.3-3.467l-1.173 1.22 1.075 1.075-2.198 2.197-4.394-4.394 2.197-2.198 1.074 1.075 1.22-1.123a15.38 15.38 0 01-3.466-8.35h-1.66v1.562H.69v-6.25h3.125v1.563h1.66a15.413 15.413 0 013.418-8.3L7.721 9.966l-1.074 1.075L4.45 8.844 8.844 4.45l2.198 2.197-1.075 1.074 1.172 1.172a15.413 15.413 0 018.301-3.418v-1.66h-1.563V.69zM8.502 21.003c0 6.92 5.58 12.5 12.5 12.5 6.922 0 12.5-5.58 12.5-12.5 0-6.922-5.578-12.5-12.5-12.5-6.92 0-12.5 5.578-12.5 12.5zm10.938-6.788a2.344 2.344 0 11-4.689 0 2.344 2.344 0 014.689 0zm7.813 0a2.344 2.344 0 11-4.69 0 2.344 2.344 0 014.69 0zm-11.72 6.788A2.344 2.344 0 1110.846 21a2.344 2.344 0 014.689.002zm7.813 0A2.344 2.344 0 1118.658 21a2.344 2.344 0 014.688.002zm7.813 0A2.344 2.344 0 1126.47 21a2.344 2.344 0 014.689.002zM19.44 27.79a2.344 2.344 0 11-4.689-.002 2.344 2.344 0 014.689.002zm7.813 0a2.344 2.344 0 11-4.69-.001 2.344 2.344 0 014.69 0z"/></svg>