<svg xmlns="http://www.w3.org/2000/svg" width="32" height="46"><path fill="#429f3a" d="M24.543 4.078c2.824.2 4.812 1.793 5.918 3.734 1.176 2.07 1.535 4.45 1.535 6.188 0 3.785-.922 7.23-1.621 9.46.297.255.582.423.875.868.484.738.852 1.785.707 3.028-.238 2.007-.879 3.359-1.504 4.21-.441.602-.691.715-.934.883-.312 1.766-1.425 3.852-3.081 5.98-1.758 2.259-4.06 4.423-6.594 5.634C18.926 45.206 17.57 46 15.996 46c-1.574 0-2.93-.793-3.848-1.938-2.543-1.21-4.855-3.37-6.625-5.624-1.671-2.137-2.796-4.223-3.105-5.993-.238-.172-.496-.293-.934-.906-.613-.855-1.242-2.215-1.48-4.219a4.486 4.486 0 01.691-3.011c.29-.442.57-.602.867-.852-.699-2.207-1.566-5.93-1.566-7.86 0-4.667 1.324-8.605 4.008-11.355C6.687 1.488 10.672 0 15.719 0c4.765 0 7.543 2.121 8.824 4.078zM5.433 5.637c-2.25 2.304-3.437 5.668-3.437 9.957 0 1.281 1.012 6.074 1.617 7.816a.999.999 0 01-.097.856c2.011 1.668 4.34 3.039 6.53 4.02C12.56 29.41 14.935 30 16.306 30c1.27 0 3.543-.617 5.941-1.785a27.47 27.47 0 002.52-1.414c.027-.04.047-.082.078-.125l.054.039a26.352 26.352 0 003.461-2.559 1.003 1.003 0 01-.043-.73c.676-2.078 1.68-5.719 1.68-9.426 0-1.441-.348-3.566-1.277-5.2-.93-1.632-2.282-2.8-4.723-2.8a.997.997 0 01-.879-.523C22.36 4.09 20.215 2 15.72 2 11.062 2 7.687 3.332 5.434 5.637zm18.008 3.976a1 1 0 01.957.555c.348.445 3.598 4.691 3.598 9.832.004.36-.183.695-.496.879a1.01 1.01 0 01-1.008 0c-.312-.184-.5-.52-.496-.879 0-3.106-1.558-6.07-2.527-7.625-.32.383-.7.793-1.207 1.21-1.48 1.22-3.86 2.415-7.266 2.415-1.844 0-4.008.066-5.555.625-.773.281-1.37.664-1.777 1.176-.41.515-.668 1.172-.668 2.199.004.36-.184.695-.496.879a1.01 1.01 0 01-1.008 0c-.312-.184-.5-.52-.496-.879 0-1.39.402-2.566 1.102-3.445.695-.875 1.652-1.442 2.664-1.809 2.023-.734 4.36-.746 6.234-.746 2.945 0 4.817-.992 5.996-1.96 1.113-.915 1.52-1.7 1.567-1.794a.993.993 0 01.785-.621c.004 0 .008 0 .011-.004.016 0 .032-.004.047-.004.012 0 .028-.004.043-.004zM11.996 25.5a1.5 1.5 0 11-3 0 1.5 1.5 0 013 0zm11 0a1.5 1.5 0 11-3 0 1.5 1.5 0 013 0zm3.219 2.75c-1.531 2.531-1.402 5.629-.985 8.422 1.41-1.945 2.344-3.941 2.438-4.848.035-.332.234-.625.527-.781 0 0 .23-.09.649-.66.414-.567.925-1.563 1.125-3.262.074-.629-.059-1.094-.266-1.48-1.105.98-2.289 1.836-3.488 2.609zM1.992 27.086h-.004c.2 1.703.707 2.71 1.125 3.289.414.578.645.68.645.68a1 1 0 01.511.77c.086.84.91 2.628 2.168 4.44.38-2.796.399-5.867-1.25-8.324a28.583 28.583 0 01-3.011-2.191c-.16.352-.25.777-.184 1.336zm6.121 11.297c1.489 1.648 3.25 3.133 4.98 3.933.169.078.31.2.41.352A2.982 2.982 0 0015.997 44a2.982 2.982 0 002.492-1.332.991.991 0 01.41-.352c1.598-.746 3.235-2.07 4.641-3.574-.457-2.488-1.027-5.726-.184-8.855-.078.039-.156.09-.234.125C20.543 31.27 18.152 32 16.305 32c-1.891 0-4.387-.687-7.075-1.887-.359-.16-.722-.355-1.09-.535.93 3.078.434 6.278-.027 8.805z"/></svg>