<svg width="31" height="24" fill="none" xmlns="http://www.w3.org/2000/svg"><path d="M0 .96V2.2h17.418c.247 0 .562.315.562.562V19.56h-6.258a3.72 3.72 0 00-3.662-3.1 3.72 3.72 0 00-3.662 3.1H1.86a.618.618 0 01-.62-.62v-5.58H0v5.58c0 1.02.84 1.86 1.86 1.86h2.538a3.72 3.72 0 003.662 3.1 3.72 3.72 0 003.662-3.1h9.416a3.72 3.72 0 003.662 3.1 3.72 3.72 0 003.662-3.1h.678c.516 0 .969-.233 1.298-.562.33-.33.562-.782.562-1.298v-5.948c0-.698-.266-1.337-.504-1.821a6.594 6.594 0 00-.484-.833v-.02l-2.538-3.41h-.02v-.02C26.904 6.202 26.023 5.3 24.8 5.3h-4.96a1.69 1.69 0 00-.62.116V2.762c0-.993-.809-1.802-1.802-1.802H0zm0 2.48v1.24h11.16V3.44H0zm0 2.48v1.24h9.3V5.92H0zm19.84.62h2.48v5.58c0 .516.232.969.562 1.298.33.33.782.562 1.298.562h5.58v4.96c0 .104-.078.271-.213.407-.136.136-.303.213-.407.213h-.678a3.72 3.72 0 00-3.662-3.1 3.72 3.72 0 00-3.662 3.1H19.22V7.16c0-.104.078-.271.213-.407.136-.136.303-.213.407-.213zm3.72 0h1.24c.511 0 1.223.574 1.666 1.124l2.538 3.39.02.02c.012.017.179.254.368.64.157.319.24.699.29 1.026H24.18c-.104 0-.271-.078-.407-.213-.136-.136-.213-.303-.213-.407V6.54zM0 8.4v1.24h7.44V8.4H0zm0 2.48v1.24h5.58v-1.24H0zm8.06 6.82a2.47 2.47 0 012.48 2.48 2.47 2.47 0 01-2.48 2.48 2.47 2.47 0 01-2.48-2.48 2.47 2.47 0 012.48-2.48zm16.74 0a2.47 2.47 0 012.48 2.48 2.47 2.47 0 01-2.48 2.48 2.47 2.47 0 01-2.48-2.48 2.47 2.47 0 012.48-2.48z" fill="#429F3A"/></svg>