<svg width="34" height="23" fill="none" xmlns="http://www.w3.org/2000/svg"><path d="M3.594 0A3.604 3.604 0 000 3.594v15.812A3.604 3.604 0 003.594 23h25.875a3.604 3.604 0 003.593-3.594V3.594A3.604 3.604 0 0029.47 0H3.594zm0 1.438h25.875c1.199 0 2.156.957 2.156 2.156v15.812a2.146 2.146 0 01-2.156 2.157H3.594a2.146 2.146 0 01-2.156-2.157V3.594c0-1.2.957-2.156 2.156-2.156zM5.75 5.03c-.786 0-1.438.652-1.438 1.438v2.156c0 .786.652 1.438 1.438 1.438h2.875c.786 0 1.438-.652 1.438-1.438V6.469c0-.786-.652-1.438-1.438-1.438H5.75zm0 1.438h2.875v2.156H5.75V6.469zm12.735 0a.727.727 0 00-.617.82.727.727 0 00.82.617h9.343c.259.003.5-.132.632-.356.13-.225.13-.5 0-.725a.723.723 0 00-.632-.356h-9.546zM4.83 13.656a.727.727 0 00-.618.82.727.727 0 00.82.618h3.594c.258.003.5-.132.632-.357a.726.726 0 000-.724.723.723 0 00-.632-.357H4.829zm6.469 0a.727.727 0 00-.618.82.727.727 0 00.82.618h3.594c.258.003.5-.132.632-.357a.726.726 0 000-.724.723.723 0 00-.632-.357h-3.797zm6.469 0a.727.727 0 00-.618.82.727.727 0 00.82.618h3.593a.72.72 0 00.632-1.081.723.723 0 00-.631-.357h-3.797zm6.468 0a.727.727 0 00-.617.82.727.727 0 00.82.618h3.593a.72.72 0 00.632-1.081.723.723 0 00-.632-.357h-3.797zM4.83 17.25a.727.727 0 00-.618.82.727.727 0 00.82.617h9.344c.258.003.5-.132.632-.356a.726.726 0 000-.724.723.723 0 00-.632-.357H4.829z" fill="#429F3A"/></svg>