<svg width="26" height="26" fill="none" xmlns="http://www.w3.org/2000/svg"><path d="M22.208 8.667H3.792M6.25 22.75h13.5a3 3 0 003-3V8.417a3 3 0 00-3-3H6.25a3 3 0 00-3 3V19.75a3 3 0 003 3z" stroke="#fff" stroke-width="1.8" stroke-linecap="round"/><path d="M8.125 5.417V2.979m9.75 2.438V2.979" stroke="#fff" stroke-width="1.8" stroke-linecap="round" stroke-linejoin="round"/><path d="M8.938 18.958H7.312m1.625-3.25H7.313m1.625-3.25H7.312m6.5 6.5h-1.624m1.624-3.25h-1.624m1.624-3.25h-1.624m6.5 6.5h-1.625m1.625-3.25h-1.625m1.625-3.25h-1.625" stroke="#fff" stroke-width="1.8" stroke-linecap="round"/></svg>