<svg xmlns="http://www.w3.org/2000/svg" width="21" height="21"><path fill="#fff" d="M6.13 18.38a1.75 1.75 0 113.5 0 1.75 1.75 0 01-3.5 0zm9.62 0a1.75 1.75 0 113.5 0 1.75 1.75 0 01-3.5 0zM0 .875C0 .392.392 0 .875 0h3.5c.417 0 .776.294.858.703l.735 3.672h14.157a.875.875 0 01.86 1.039l-1.402 7.348a2.625 2.625 0 01-2.616 2.113h-8.49a2.625 2.625 0 01-2.615-2.113L4.4 5.46a.868.868 0 01-.015-.073L3.658 1.75H.875A.875.875 0 010 .875zm6.318 5.25l1.26 6.296a.875.875 0 00.875.704h8.539a.875.875 0 00.874-.701l1.201-6.299z"/></svg>