<svg width="24" height="14" fill="none" xmlns="http://www.w3.org/2000/svg"><g clip-path="url(#clip0)"><path fill-rule="evenodd" clip-rule="evenodd" d="M7.5 9H7l-.991-5.868a1 1 0 011.505-.99L12 4.835l4.485-2.691a1 1 0 011.506.989L17 9h-.5c-.547-.073-.573.047-.5-.5l-.009-.389.5-4.5-3.982 2.532c-.317.19-.701.158-1.018-.032l-4-2.5L8 8.5C8 9 8 9 7.5 9z" fill="#000" fill-opacity=".8"/><path d="M7.668 8.5H16.5" stroke="#000" stroke-opacity=".8"/></g><defs><clipPath id="clip0"><path transform="rotate(180 24 13.644)" fill="#fff" d="M24 13.644h24v13.644H24z"/></clipPath></defs></svg>