<svg width="26" height="26" fill="none" xmlns="http://www.w3.org/2000/svg"><path d="M5.103 0a.52.52 0 00-.423.52v1.04a.523.523 0 00.258.457.525.525 0 00.524 0 .523.523 0 00.258-.457v-.52h18.2V13h-2.129l.569-1.04-.569-1.04H17.16V13h-5.769a.522.522 0 00.049 1.04h13.52v.52H11.44a.523.523 0 00-.457.258.525.525 0 000 .524c.095.162.27.26.457.258h14.04c.286 0 .52-.234.52-.52v-1.56a.521.521 0 00-.52-.52h-.52V.52a.521.521 0 00-.52-.52H5.103zM6.24 2.6a3.129 3.129 0 00-3.12 3.12 3.129 3.129 0 003.12 3.12 3.129 3.129 0 003.12-3.12A3.129 3.129 0 006.24 2.6zm0 6.24H5.037c-.392 0-.962.049-1.494.406-.533.358-.943 1.046-.943 2.031v5.59a2.603 2.603 0 00-1.56 2.373c0 .788.368 1.489.926 1.966A3.666 3.666 0 000 24.44v1.04c0 .286.234.52.52.52h24.96c.286 0 .52-.234.52-.52v-1.04a3.666 3.666 0 00-1.966-3.234 2.588 2.588 0 00.926-1.966c0-1.43-1.17-2.6-2.6-2.6-1.43 0-2.6 1.17-2.6 2.6 0 .788.368 1.489.926 1.966-.593.311-1.1.794-1.446 1.365a3.68 3.68 0 00-1.446-1.365 2.588 2.588 0 00.926-1.966c0-1.43-1.17-2.6-2.6-2.6-1.43 0-2.6 1.17-2.6 2.6 0 .788.368 1.489.926 1.966-.593.311-1.1.794-1.446 1.365a3.696 3.696 0 00-1.446-1.365 2.588 2.588 0 00.926-1.966 2.617 2.617 0 00-2.08-2.551V11.96l2.226-.796.017-.016c.004-.002.012.002.016 0 .443-.135.806-.372 1.056-.7h.016l2.6-3.363v-.016c.48-.638.407-1.58-.26-2.08a1.535 1.535 0 00-1.089-.293 1.41 1.41 0 00-.99.553l-2.227 2.876-3.445.715H6.24zm0-5.2a2.07 2.07 0 012.08 2.08A2.07 2.07 0 016.24 7.8a2.071 2.071 0 01-2.08-2.08 2.07 2.07 0 012.08-2.08zm8.856 2.096a.479.479 0 01.341.082c.163.121.197.422.066.617-.005.004.004.012 0 .016l-2.6 3.364v.016c-.057.075-.305.25-.57.325a.253.253 0 00-.032.016l-2.6.927a.52.52 0 00-.341.503v5.087a2.617 2.617 0 00-2.08 2.551c0 .788.368 1.489.926 1.966-.593.311-1.1.794-1.446 1.365a3.681 3.681 0 00-1.446-1.365 2.588 2.588 0 00.926-1.966c0-1.43-1.17-2.6-2.6-2.6v-5.363c0-.73.211-.995.471-1.17.26-.174.642-.227.926-.227H8.32a.53.53 0 00.114-.016l3.737-.78a.533.533 0 00.309-.179l2.34-3.022a.4.4 0 01.276-.147zM3.64 17.68c.867 0 1.56.693 1.56 1.56 0 .867-.693 1.56-1.56 1.56-.867 0-1.56-.693-1.56-1.56a1.56 1.56 0 011.089-1.495c.03-.01.067-.008.097-.016a1.546 1.546 0 01.374-.049zm12.48 0c.867 0 1.56.693 1.56 1.56 0 .867-.693 1.56-1.56 1.56-.867 0-1.56-.693-1.56-1.56 0-.867.693-1.56 1.56-1.56zm6.24 0c.867 0 1.56.693 1.56 1.56 0 .867-.693 1.56-1.56 1.56-.867 0-1.56-.693-1.56-1.56 0-.867.693-1.56 1.56-1.56zm-12.61.016h.016c.07.014.142.014.211 0h.017c.81.061 1.446.717 1.446 1.544 0 .867-.693 1.56-1.56 1.56-.867 0-1.56-.693-1.56-1.56 0-.823.628-1.477 1.43-1.544zM3.64 21.84c1.432 0 2.6 1.168 2.6 2.6v.52h-5.2v-.52c0-1.432 1.168-2.6 2.6-2.6zm6.24 0c1.432 0 2.6 1.168 2.6 2.6v.52h-5.2v-.52c0-1.432 1.168-2.6 2.6-2.6zm6.24 0c1.432 0 2.6 1.168 2.6 2.6v.52h-5.2v-.52c0-1.432 1.168-2.6 2.6-2.6zm6.24 0c1.432 0 2.6 1.168 2.6 2.6v.52h-5.2v-.52c0-1.432 1.168-2.6 2.6-2.6z" fill="#fff"/></svg>