<svg width="22" height="20" fill="none" xmlns="http://www.w3.org/2000/svg"><path d="M6.466.12a.513.513 0 00-.228.114L.925 4.312A.519.519 0 00.6 4.8v14.56c0 .286.233.52.52.52h15.616a.534.534 0 00.146-.032.528.528 0 00.309-.244l4.095-5.119a.523.523 0 00.114-.325V.737a.52.52 0 00-.163-.47.234.234 0 00-.016-.033h-.016A.242.242 0 0021.172.2h-.016a.657.657 0 00-.081-.049.509.509 0 00-.147-.032H6.465zm.26 1.04h5.509l-3.51 3.12H2.647l4.079-3.12zm7.069 0h5.817l-3.12 3.12h-6.207l3.51-3.12zm6.565.748V13.98l-3.12 3.9V5.027l3.12-3.12zM1.64 5.32h7.085c.1.03.209.03.308 0H16.2v13.52H1.64V5.32zM6.222 7.4a.523.523 0 00.098 1.04h5.2a.523.523 0 00.457-.258.525.525 0 000-.524.523.523 0 00-.457-.258H6.222z" fill="#fff"/></svg>