<svg width="13" height="24" fill="none" xmlns="http://www.w3.org/2000/svg"><path d="M7 .04a2.608 2.608 0 00-2.373 1.548 2.406 2.406 0 00-.38.004c-.414.034-.932.173-1.348.589-.83.829-.555 2.074-.555 2.074l.057.384.384.057s1.245.274 2.076-.557c.004-.004.006-.01.012-.016A2.6 2.6 0 007 5.24c1.43 0 2.6-1.17 2.6-2.6C9.6 1.21 8.43.04 7 .04zm0 1.04c.867 0 1.56.693 1.56 1.56 0 .867-.693 1.56-1.56 1.56a1.548 1.548 0 01-1.55-1.454c.006-.098.008-.191.006-.273A1.547 1.547 0 017 1.08zM4.367 2.672c-.024.269-.085.575-.243.732-.157.158-.462.217-.732.243.027-.27.086-.574.244-.73.156-.16.463-.22.731-.245zM4.92 5.76A4.168 4.168 0 00.76 9.92v6.587l1.04.435v3.898h1.365l.231 3.12h3.567l.232-3.12H8.56v-7.197l1.154 1.944a1.54 1.54 0 00-.114.573v.52h1.04v-.52a.51.51 0 01.52-.52.51.51 0 01.52.52v7.8h1.04v-7.8c0-.455-.203-.865-.52-1.152v-.532L9.234 8.632l.016.039A4.68 4.68 0 004.92 5.76zm0 1.04c1.527 0 2.825.936 3.37 2.265l.016.036 2.79 5.499h-.759L7.52 9.855V19.8H6.228l-.232 3.12H4.363l-.231-3.12H2.84v-3.55l-1.04-.437V9.92A3.113 3.113 0 014.92 6.8z" fill="#fff"/></svg>