<svg width="20" height="24" fill="none" xmlns="http://www.w3.org/2000/svg"><path d="M3.24.04A3.129 3.129 0 00.12 3.16v17.897c0 1.652 1.473 2.903 3.12 2.903h16.64v-1.04H3.24c-1.123 0-2.08-.843-2.08-1.863s.937-1.777 2.08-1.777h16.64V.04H3.24zm0 1.04h15.6v17.16H3.24a3.34 3.34 0 00-2.08.737V3.16c0-1.154.926-2.08 2.08-2.08zm11.17 2.602a3.325 3.325 0 00-.892.087 4.479 4.479 0 00-2.171 1.225l-.002.004c-.876.868-.918 2.078-.68 2.984.036.136.142.23.207.352L4.45 14.752a.516.516 0 00-.142.506.515.515 0 00.371.372.516.516 0 00.506-.142l6.419-6.417c.128.069.23.177.374.215.905.232 2.092.15 2.992-.737a4.456 4.456 0 001.202-2.137c.177-.776.108-1.609-.447-2.188-.002-.004-.006-.008-.01-.012a1.838 1.838 0 00-1.018-.5 2.275 2.275 0 00-.288-.03zm-8.946.002a.527.527 0 00-.357.146 2.71 2.71 0 00-.037 3.858l2.296 2.344c.13.136.323.19.505.146a.525.525 0 00.376-.368.523.523 0 00-.136-.505l-2.3-2.349c-.001-.002-.003-.002-.003-.004-.535-.534-.61-1.316-.275-1.944l3.435 3.478a.518.518 0 00.878-.223.519.519 0 00-.14-.508L5.838 3.838a.515.515 0 00-.374-.154zm8.692 1.04c.126-.006.244-.002.35.014a.875.875 0 01.473.21c.223.24.306.676.18 1.232a3.524 3.524 0 01-.92 1.63c-.603.595-1.344.635-2.003.467a.77.77 0 01-.353-.205V8.07a.775.775 0 01-.211-.354h-.002c-.175-.664-.136-1.444.406-1.982a3.57 3.57 0 011.674-.95 2.24 2.24 0 01.406-.06zm-2.4 5.401a.52.52 0 00-.36.894l.463.459-.813.815-.41-.413a.52.52 0 00-.88.23.525.525 0 00.143.506l.78.78a.524.524 0 00.735 0l1.182-1.185 3.295 3.277a.52.52 0 10.733-.738l-4.495-4.47a.526.526 0 00-.374-.157v.002z" fill="#fff"/></svg>