<svg width="15" height="15" fill="none" xmlns="http://www.w3.org/2000/svg"><path d="M14.445 1.227A1.864 1.864 0 0013.115.7H2.185c-.516 0-.96.176-1.33.527A1.68 1.68 0 00.3 2.489v10.37c0 .491.185.912.555 1.263.37.351.814.527 1.33.527h10.93c.516 0 .96-.176 1.33-.527A1.68 1.68 0 0015 12.86V2.489c0-.49-.185-.91-.555-1.262zm-8.867 4.5c.578-.53 1.271-.795 2.082-.795.816 0 1.513.265 2.09.794.578.53.867 1.17.867 1.921 0 .75-.289 1.391-.866 1.92-.578.53-1.274.796-2.091.796-.81 0-1.504-.266-2.082-.795-.577-.53-.866-1.17-.866-1.92 0-.751.289-1.392.866-1.922zm7.757 6.76a.516.516 0 01-.172.396.587.587 0 01-.412.159H2.521a.581.581 0 01-.417-.16.522.522 0 01-.167-.394V6.603h1.349a3.727 3.727 0 00-.191 1.19c0 1.162.446 2.153 1.34 2.974.893.82 1.968 1.23 3.225 1.23.83 0 1.595-.188 2.297-.563a4.373 4.373 0 001.665-1.53 3.87 3.87 0 00.613-2.112c0-.411-.064-.808-.192-1.19h1.292v5.886zm0-8.11a.59.59 0 01-.192.446.655.655 0 01-.469.181H11.01a.656.656 0 01-.469-.181.59.59 0 01-.191-.445V2.88c0-.17.064-.317.191-.44a.647.647 0 01.47-.187h1.665c.185 0 .34.062.468.186s.192.271.192.44v1.499z" fill="#fff"/></svg>